# xmcd
#
# Track frame offsets:
#	150
#	13158
#	21856
#	32333
#	42593
#	54146
#	64724
#	75644
#	85979
#	94676
#	102605
#	113105
#	125373
#	135791
#	145698
#	157713
#	167745
#	178885
#	188221
#	199390
#	208891
#	217442
#	225647
#	234930
#	244216
#
# Disc length: 3472 seconds
#
# Revision: 0
# Processed by: cddbd v1.5.2PL0 Copyright (c) Steve Scherf et al.
# Submitted via: audiograbber 1.83.01
#
DISCID=580d8e19
DTITLE=Johnny Cash - The Rebel CD3
DYEAR=2017
DGENRE=Country
TTITLE0=Folsom Prison Blues
TTITLE1=Guess Things Happen That Way
TTITLE2=Busted
TTITLE3=Girl in Saskatoon
TTITLE4=Seasons of My Heart
TTITLE5=You Win Again
TTITLE6=Run Softly, Blue River
TTITLE7=Hey Porter
TTITLE8=I'll Remember You
TTITLE9=Come in Stranger
TTITLE10=The Ways of a Woman in Love
TTITLE11=You're the Nearest Thing to Heaven
TTITLE12=All Over Again
TTITLE13=What Do I Care?
TTITLE14=I Still Miss Someone
TTITLE15=It's Just About Time
TTITLE16=I Just Thought Youd Like to Know
TTITLE17=Delia's Gone
TTITLE18=I Forgot More Thmn You'll Ever Know
TTITLE19=You Remembered Me
TTITLE20=I'm Free from the Chain Gang Now
TTITLE21=Let Me Down Easy
TTITLE22=Sing It Pretty Sue
TTITLE23=Lost on the Desert
TTITLE24=A Boy Named Sue [Live]
EXTD=
EXTT0=
EXTT1=
EXTT2=
EXTT3=
EXTT4=
EXTT5=
EXTT6=
EXTT7=
EXTT8=
EXTT9=
EXTT10=
EXTT11=
EXTT12=
EXTT13=
EXTT14=
EXTT15=
EXTT16=
EXTT17=
EXTT18=
EXTT19=
EXTT20=
EXTT21=
EXTT22=
EXTT23=
EXTT24=
PLAYORDER=
